<mxfile host="app.diagrams.net" agent="Mozilla/5.0 (Windows NT 10.0; Win64; x64) AppleWebKit/537.36 (KHTML, like Gecko) Chrome/130.0.0.0 Safari/537.36" version="24.8.6" pages="4">
  <diagram id="ViH5Cx8-jqFS3m8-deZJ" name="ページ1">
    <mxGraphModel dx="1467" dy="623" grid="1" gridSize="10" guides="1" tooltips="1" connect="1" arrows="1" fold="1" page="1" pageScale="1" pageWidth="1169" pageHeight="827" math="0" shadow="0">
      <root>
        <mxCell id="0" />
        <mxCell id="1" parent="0" />
        <mxCell id="IBQuEzhzvJESu5Vx_dm2-1" value="&lt;font style=&quot;font-size: 50px;&quot;&gt;クラスでの読書記録アプリ&lt;/font&gt;&lt;div style=&quot;font-size: 50px;&quot;&gt;&lt;font style=&quot;font-size: 50px;&quot;&gt;設計および説明書&lt;/font&gt;&lt;/div&gt;" style="rounded=0;whiteSpace=wrap;html=1;fontSize=30;" vertex="1" parent="1">
          <mxGeometry x="80" y="50" width="990" height="150" as="geometry" />
        </mxCell>
        <mxCell id="IBQuEzhzvJESu5Vx_dm2-16" value="" style="shape=table;startSize=0;container=1;collapsible=0;childLayout=tableLayout;strokeWidth=3;" vertex="1" parent="1">
          <mxGeometry x="80" y="240" width="990" height="550" as="geometry" />
        </mxCell>
        <mxCell id="IBQuEzhzvJESu5Vx_dm2-17" value="" style="shape=tableRow;horizontal=0;startSize=0;swimlaneHead=0;swimlaneBody=0;strokeColor=inherit;top=0;left=0;bottom=0;right=0;collapsible=0;dropTarget=0;fillColor=none;points=[[0,0.5],[1,0.5]];portConstraint=eastwest;" vertex="1" parent="IBQuEzhzvJESu5Vx_dm2-16">
          <mxGeometry width="990" height="550" as="geometry" />
        </mxCell>
        <mxCell id="IBQuEzhzvJESu5Vx_dm2-18" value="" style="shape=partialRectangle;html=1;whiteSpace=wrap;connectable=0;strokeColor=inherit;overflow=hidden;fillColor=none;top=0;left=0;bottom=0;right=0;pointerEvents=1;" vertex="1" parent="IBQuEzhzvJESu5Vx_dm2-17">
          <mxGeometry width="495" height="550" as="geometry">
            <mxRectangle width="495" height="550" as="alternateBounds" />
          </mxGeometry>
        </mxCell>
        <mxCell id="IBQuEzhzvJESu5Vx_dm2-19" value="" style="shape=partialRectangle;html=1;whiteSpace=wrap;connectable=0;strokeColor=inherit;overflow=hidden;fillColor=none;top=0;left=0;bottom=0;right=0;pointerEvents=1;" vertex="1" parent="IBQuEzhzvJESu5Vx_dm2-17">
          <mxGeometry x="495" width="495" height="550" as="geometry">
            <mxRectangle width="495" height="550" as="alternateBounds" />
          </mxGeometry>
        </mxCell>
        <mxCell id="IBQuEzhzvJESu5Vx_dm2-22" value="&lt;span style=&quot;background-color: initial; font-size: 21px;&quot;&gt;〈共通〉&lt;/span&gt;&lt;br&gt;&lt;ul style=&quot;font-size: 21px;&quot;&gt;&lt;li&gt;&lt;span style=&quot;background-color: initial;&quot;&gt;A 　ログインページ&lt;/span&gt;&lt;/li&gt;&lt;/ul&gt;&lt;span style=&quot;background-color: initial; font-size: 21px;&quot;&gt;〈生徒〉&lt;/span&gt;&lt;br&gt;&lt;ul style=&quot;font-size: 21px;&quot;&gt;&lt;li&gt;&lt;span style=&quot;background-color: initial;&quot;&gt;B 　ホーム画面&lt;/span&gt;&lt;/li&gt;&lt;/ul&gt;&lt;ul style=&quot;font-size: 21px;&quot;&gt;&lt;li&gt;&lt;span style=&quot;background-color: initial;&quot;&gt;C 　パスワード変更画面&lt;/span&gt;&lt;/li&gt;&lt;ul&gt;&lt;li&gt;&lt;span style=&quot;background-color: initial;&quot;&gt;C-1　パスワード変更（通常）&lt;/span&gt;&lt;/li&gt;&lt;li&gt;&lt;span style=&quot;background-color: initial;&quot;&gt;C-2　パスワード変更（エラー発生時）&lt;/span&gt;&lt;/li&gt;&lt;li&gt;&lt;span style=&quot;background-color: initial;&quot;&gt;C-3　パスワード変更（確認画面）&lt;/span&gt;&lt;/li&gt;&lt;li&gt;&lt;span style=&quot;background-color: initial;&quot;&gt;C-4　パスワード変更（完了のお知らせ）&lt;/span&gt;&lt;/li&gt;&lt;/ul&gt;&lt;/ul&gt;&lt;ul style=&quot;font-size: 21px;&quot;&gt;&lt;li&gt;&lt;span style=&quot;background-color: initial;&quot;&gt;D 　読書メモ登録画面&lt;/span&gt;&lt;/li&gt;&lt;ul&gt;&lt;li&gt;&lt;span style=&quot;background-color: initial;&quot;&gt;D-1　読書メモ登録（通常）　&lt;/span&gt;&lt;/li&gt;&lt;li&gt;&lt;span style=&quot;background-color: initial;&quot;&gt;D-2　読書メモ登録（エラー発生時）&lt;/span&gt;&lt;/li&gt;&lt;li&gt;&lt;span style=&quot;background-color: initial;&quot;&gt;D-3　読書メモ登録（確認画面）&lt;/span&gt;&lt;/li&gt;&lt;li&gt;&lt;span style=&quot;background-color: initial;&quot;&gt;D-4　読書メモ登録（完了のお知らせ）&lt;/span&gt;&lt;/li&gt;&lt;/ul&gt;&lt;/ul&gt;" style="text;html=1;align=left;verticalAlign=middle;whiteSpace=wrap;rounded=0;" vertex="1" parent="1">
          <mxGeometry x="80" y="240" width="490" height="550" as="geometry" />
        </mxCell>
        <mxCell id="IBQuEzhzvJESu5Vx_dm2-23" value="&lt;div style=&quot;font-size: 21px;&quot;&gt;&lt;ul&gt;&lt;li&gt;E 　読書メモ更新画面&lt;/li&gt;&lt;ul&gt;&lt;li&gt;E-1　読書メモ更新（通常）　&lt;/li&gt;&lt;li&gt;E-2　読書メモ更新（エラー発生時）&lt;/li&gt;&lt;li&gt;E-3　読書メモ更新（確認画面）&lt;/li&gt;&lt;li&gt;E-4　読書メモ更新（完了のお知らせ）&lt;/li&gt;&lt;/ul&gt;&lt;li&gt;F 　読書メモ詳細画面&lt;/li&gt;&lt;ul&gt;&lt;li&gt;F-1　読書メモ詳細を表示　&lt;/li&gt;&lt;/ul&gt;&lt;/ul&gt;&lt;span style=&quot;background-color: initial;&quot;&gt;〈教師〉&lt;/span&gt;&lt;br&gt;&lt;ul&gt;&lt;li&gt;G 　ホーム画面&lt;/li&gt;&lt;li&gt;H 　アカウント登録画面&lt;/li&gt;&lt;ul&gt;&lt;li&gt;H-1　読書メモ登録（通常）　&lt;/li&gt;&lt;li&gt;H-2　読書メモ登録（エラー発生時）&lt;/li&gt;&lt;li&gt;H-3　読書メモ登録（確認画面）&lt;/li&gt;&lt;li&gt;H-4　読書メモ登録（完了のお知らせ）&lt;/li&gt;&lt;/ul&gt;&lt;/ul&gt;&lt;/div&gt;" style="text;html=1;align=left;verticalAlign=middle;whiteSpace=wrap;rounded=0;" vertex="1" parent="1">
          <mxGeometry x="580" y="240" width="490" height="550" as="geometry" />
        </mxCell>
      </root>
    </mxGraphModel>
  </diagram>
  <diagram name="ページ2" id="QkrrsLEGO74F7CeddmKC">
    <mxGraphModel dx="2204" dy="440" grid="1" gridSize="10" guides="1" tooltips="1" connect="1" arrows="1" fold="1" page="1" pageScale="1" pageWidth="1169" pageHeight="827" math="0" shadow="0">
      <root>
        <mxCell id="0" />
        <mxCell id="1" parent="0" />
        <mxCell id="3uVgNzKF3RByTq_ckypd-1" value="" style="rounded=0;whiteSpace=wrap;html=1;fillColor=none;strokeWidth=5;strokeColor=#336600;" vertex="1" parent="1">
          <mxGeometry x="-1110" y="280" width="760" height="470" as="geometry" />
        </mxCell>
        <mxCell id="5xJS2YFvxH59TrxPRNHD-4" value="&lt;h1&gt;&lt;br&gt;&lt;/h1&gt;" style="verticalLabelPosition=middle;verticalAlign=middle;html=1;shape=mxgraph.basic.patternFillRect;fillStyle=diag;step=5;fillStrokeWidth=0.2;fillStrokeColor=#dddddd;fillColor=#dae8fc;strokeColor=#6c8ebf;labelPosition=center;align=center;" parent="1" vertex="1">
          <mxGeometry x="-1110" y="280" width="760" height="90" as="geometry" />
        </mxCell>
        <mxCell id="5xJS2YFvxH59TrxPRNHD-5" value="" style="verticalLabelPosition=bottom;verticalAlign=top;html=1;shape=mxgraph.basic.rect;fillColor2=none;strokeWidth=1;size=20;indent=5;" parent="1" vertex="1">
          <mxGeometry x="-850" y="510" width="240" height="30" as="geometry" />
        </mxCell>
        <mxCell id="5xJS2YFvxH59TrxPRNHD-7" value="" style="verticalLabelPosition=bottom;verticalAlign=top;html=1;shape=mxgraph.basic.patternFillRect;fillStyle=vert;step=5;fillStrokeWidth=0.2;fillStrokeColor=#dddddd;fillColor=#dae8fc;strokeColor=#6c8ebf;" parent="1" vertex="1">
          <mxGeometry x="-790" y="630" width="110" height="25" as="geometry" />
        </mxCell>
        <mxCell id="5xJS2YFvxH59TrxPRNHD-8" value="&lt;font style=&quot;font-size: 25px;&quot;&gt;読書ログアプリ&lt;/font&gt;" style="verticalLabelPosition=middle;verticalAlign=middle;html=1;shape=mxgraph.basic.rect;fillColor2=none;strokeWidth=1;size=20;indent=5;labelPosition=center;align=center;fontSize=50;fillColor=none;strokeColor=none;" parent="1" vertex="1">
          <mxGeometry x="-1100" y="280" width="230" height="85" as="geometry" />
        </mxCell>
        <mxCell id="5xJS2YFvxH59TrxPRNHD-14" value="" style="line;strokeWidth=2;html=1;fillColor=#f5f5f5;fontColor=#333333;strokeColor=#666666;labelPosition=center;verticalLabelPosition=middle;align=center;verticalAlign=middle;fontSize=30;" parent="1" vertex="1">
          <mxGeometry x="-1100" y="390" width="740" height="110" as="geometry" />
        </mxCell>
        <mxCell id="5xJS2YFvxH59TrxPRNHD-18" value="&lt;font style=&quot;font-size: 31px;&quot;&gt;ログインページ&lt;/font&gt;" style="verticalLabelPosition=middle;verticalAlign=middle;html=1;shape=mxgraph.basic.rect;fillColor2=none;strokeWidth=1;size=20;indent=5;labelPosition=center;align=center;fontSize=54;fillColor=none;strokeColor=none;" parent="1" vertex="1">
          <mxGeometry x="-810" y="371" width="130" height="85" as="geometry" />
        </mxCell>
        <mxCell id="5xJS2YFvxH59TrxPRNHD-19" value="&lt;font style=&quot;font-size: 12px;&quot;&gt;ユーザー名&lt;/font&gt;" style="verticalLabelPosition=middle;verticalAlign=middle;html=1;shape=mxgraph.basic.rect;fillColor2=none;strokeWidth=1;size=20;indent=5;labelPosition=center;align=center;fontSize=50;fillColor=none;strokeColor=none;" parent="1" vertex="1">
          <mxGeometry x="-1020" y="470" width="230" height="85" as="geometry" />
        </mxCell>
        <mxCell id="5xJS2YFvxH59TrxPRNHD-20" value="&lt;font style=&quot;font-size: 12px;&quot;&gt;パスワード&lt;/font&gt;" style="verticalLabelPosition=middle;verticalAlign=middle;html=1;shape=mxgraph.basic.rect;fillColor2=none;strokeWidth=1;size=20;indent=5;labelPosition=center;align=center;fontSize=50;fillColor=none;strokeColor=none;" parent="1" vertex="1">
          <mxGeometry x="-1020" y="520" width="230" height="85" as="geometry" />
        </mxCell>
        <mxCell id="5xJS2YFvxH59TrxPRNHD-21" value="&lt;font style=&quot;font-size: 12px;&quot;&gt;ログイン&lt;/font&gt;" style="verticalLabelPosition=middle;verticalAlign=middle;html=1;shape=mxgraph.basic.rect;fillColor2=none;strokeWidth=1;size=20;indent=5;labelPosition=center;align=center;fontSize=26;fillColor=none;strokeColor=none;" parent="1" vertex="1">
          <mxGeometry x="-780" y="595" width="90" height="85" as="geometry" />
        </mxCell>
        <mxCell id="3uVgNzKF3RByTq_ckypd-5" value="" style="verticalLabelPosition=bottom;verticalAlign=top;html=1;shape=mxgraph.basic.rect;fillColor2=none;strokeWidth=1;size=20;indent=5;" vertex="1" parent="1">
          <mxGeometry x="-850" y="560" width="240" height="30" as="geometry" />
        </mxCell>
        <mxCell id="3uVgNzKF3RByTq_ckypd-7" value="&lt;div&gt;&lt;span style=&quot;font-size: 31px;&quot;&gt;〈共通〉&amp;nbsp;&lt;/span&gt;&lt;span style=&quot;font-size: 31px; background-color: initial;&quot;&gt;A ログインページ&amp;nbsp;&amp;nbsp;&lt;/span&gt;&lt;/div&gt;" style="verticalLabelPosition=middle;verticalAlign=middle;html=1;shape=mxgraph.basic.rect;fillColor2=none;strokeWidth=1;size=20;indent=5;labelPosition=center;align=center;fontSize=54;fillColor=none;strokeColor=none;fontStyle=4" vertex="1" parent="1">
          <mxGeometry x="-950" y="20" width="130" height="65" as="geometry" />
        </mxCell>
        <mxCell id="3uVgNzKF3RByTq_ckypd-8" value="&lt;font style=&quot;font-size: 20px;&quot;&gt;ログイン出来たら「&lt;/font&gt;&lt;span style=&quot;font-size: 20px; background-color: initial;&quot;&gt;B ホーム画面」へ&lt;/span&gt;" style="shape=callout;whiteSpace=wrap;html=1;perimeter=calloutPerimeter;direction=south;fillColor=#fad7ac;strokeColor=#b46504;strokeWidth=8;align=center;" vertex="1" parent="1">
          <mxGeometry x="-660" y="620" width="460" height="90" as="geometry" />
        </mxCell>
      </root>
    </mxGraphModel>
  </diagram>
  <diagram name="ページ3" id="x6mxVDvv-2E2M50m6F3t">
    <mxGraphModel dx="2426" dy="534" grid="1" gridSize="10" guides="1" tooltips="1" connect="1" arrows="1" fold="1" page="1" pageScale="1" pageWidth="1169" pageHeight="827" math="0" shadow="0">
      <root>
        <mxCell id="09-5HTNzlgl4ZciYs51T-0" />
        <mxCell id="09-5HTNzlgl4ZciYs51T-1" parent="09-5HTNzlgl4ZciYs51T-0" />
        <mxCell id="09-5HTNzlgl4ZciYs51T-2" value="" style="rounded=0;whiteSpace=wrap;html=1;fillColor=none;strokeWidth=5;strokeColor=#336600;" vertex="1" parent="09-5HTNzlgl4ZciYs51T-1">
          <mxGeometry x="-1110" y="280" width="760" height="470" as="geometry" />
        </mxCell>
        <mxCell id="09-5HTNzlgl4ZciYs51T-3" value="&lt;h1&gt;&lt;br&gt;&lt;/h1&gt;" style="verticalLabelPosition=middle;verticalAlign=middle;html=1;shape=mxgraph.basic.patternFillRect;fillStyle=diag;step=5;fillStrokeWidth=0.2;fillStrokeColor=#dddddd;fillColor=#dae8fc;strokeColor=#6c8ebf;labelPosition=center;align=center;" vertex="1" parent="09-5HTNzlgl4ZciYs51T-1">
          <mxGeometry x="-1110" y="280" width="760" height="90" as="geometry" />
        </mxCell>
        <mxCell id="09-5HTNzlgl4ZciYs51T-4" value="" style="verticalLabelPosition=bottom;verticalAlign=top;html=1;shape=mxgraph.basic.rect;fillColor2=none;strokeWidth=3;size=20;indent=5;strokeColor=#FF3333;" vertex="1" parent="09-5HTNzlgl4ZciYs51T-1">
          <mxGeometry x="-850" y="510" width="240" height="30" as="geometry" />
        </mxCell>
        <mxCell id="09-5HTNzlgl4ZciYs51T-5" value="" style="verticalLabelPosition=bottom;verticalAlign=top;html=1;shape=mxgraph.basic.patternFillRect;fillStyle=vert;step=5;fillStrokeWidth=0.2;fillStrokeColor=#dddddd;fillColor=#dae8fc;strokeColor=#6c8ebf;" vertex="1" parent="09-5HTNzlgl4ZciYs51T-1">
          <mxGeometry x="-790" y="630" width="110" height="25" as="geometry" />
        </mxCell>
        <mxCell id="09-5HTNzlgl4ZciYs51T-6" value="&lt;font style=&quot;font-size: 25px;&quot;&gt;読書ログアプリ&lt;/font&gt;" style="verticalLabelPosition=middle;verticalAlign=middle;html=1;shape=mxgraph.basic.rect;fillColor2=none;strokeWidth=1;size=20;indent=5;labelPosition=center;align=center;fontSize=50;fillColor=none;strokeColor=none;" vertex="1" parent="09-5HTNzlgl4ZciYs51T-1">
          <mxGeometry x="-1100" y="280" width="230" height="85" as="geometry" />
        </mxCell>
        <mxCell id="09-5HTNzlgl4ZciYs51T-7" value="" style="line;strokeWidth=2;html=1;fillColor=#f5f5f5;fontColor=#333333;strokeColor=#666666;labelPosition=center;verticalLabelPosition=middle;align=center;verticalAlign=middle;fontSize=30;" vertex="1" parent="09-5HTNzlgl4ZciYs51T-1">
          <mxGeometry x="-1100" y="390" width="740" height="110" as="geometry" />
        </mxCell>
        <mxCell id="09-5HTNzlgl4ZciYs51T-8" value="&lt;font style=&quot;font-size: 31px;&quot;&gt;ログインページ&lt;/font&gt;" style="verticalLabelPosition=middle;verticalAlign=middle;html=1;shape=mxgraph.basic.rect;fillColor2=none;strokeWidth=1;size=20;indent=5;labelPosition=center;align=center;fontSize=54;fillColor=none;strokeColor=none;" vertex="1" parent="09-5HTNzlgl4ZciYs51T-1">
          <mxGeometry x="-810" y="371" width="130" height="85" as="geometry" />
        </mxCell>
        <mxCell id="09-5HTNzlgl4ZciYs51T-9" value="&lt;font style=&quot;font-size: 12px;&quot;&gt;ユーザー名&lt;/font&gt;" style="verticalLabelPosition=middle;verticalAlign=middle;html=1;shape=mxgraph.basic.rect;fillColor2=none;strokeWidth=1;size=20;indent=5;labelPosition=center;align=center;fontSize=50;fillColor=none;strokeColor=none;" vertex="1" parent="09-5HTNzlgl4ZciYs51T-1">
          <mxGeometry x="-1020" y="470" width="230" height="85" as="geometry" />
        </mxCell>
        <mxCell id="09-5HTNzlgl4ZciYs51T-10" value="&lt;font style=&quot;font-size: 12px;&quot;&gt;パスワード&lt;/font&gt;" style="verticalLabelPosition=middle;verticalAlign=middle;html=1;shape=mxgraph.basic.rect;fillColor2=none;strokeWidth=1;size=20;indent=5;labelPosition=center;align=center;fontSize=50;fillColor=none;strokeColor=none;" vertex="1" parent="09-5HTNzlgl4ZciYs51T-1">
          <mxGeometry x="-1020" y="520" width="230" height="85" as="geometry" />
        </mxCell>
        <mxCell id="09-5HTNzlgl4ZciYs51T-11" value="&lt;font style=&quot;font-size: 12px;&quot;&gt;ログイン&lt;/font&gt;" style="verticalLabelPosition=middle;verticalAlign=middle;html=1;shape=mxgraph.basic.rect;fillColor2=none;strokeWidth=1;size=20;indent=5;labelPosition=center;align=center;fontSize=26;fillColor=none;strokeColor=none;" vertex="1" parent="09-5HTNzlgl4ZciYs51T-1">
          <mxGeometry x="-780" y="595" width="90" height="85" as="geometry" />
        </mxCell>
        <mxCell id="09-5HTNzlgl4ZciYs51T-12" value="" style="verticalLabelPosition=bottom;verticalAlign=top;html=1;shape=mxgraph.basic.rect;fillColor2=none;strokeWidth=3;size=20;indent=5;strokeColor=#FF3333;" vertex="1" parent="09-5HTNzlgl4ZciYs51T-1">
          <mxGeometry x="-850" y="560" width="240" height="30" as="geometry" />
        </mxCell>
        <mxCell id="09-5HTNzlgl4ZciYs51T-13" value="&lt;div&gt;&lt;span style=&quot;font-size: 31px;&quot;&gt;〈共通〉&amp;nbsp;&lt;/span&gt;&lt;span style=&quot;font-size: 31px; background-color: initial;&quot;&gt;A ログインページ&amp;nbsp;&amp;nbsp;&lt;/span&gt;&lt;/div&gt;" style="verticalLabelPosition=middle;verticalAlign=middle;html=1;shape=mxgraph.basic.rect;fillColor2=none;strokeWidth=1;size=20;indent=5;labelPosition=center;align=center;fontSize=54;fillColor=none;strokeColor=none;fontStyle=4" vertex="1" parent="09-5HTNzlgl4ZciYs51T-1">
          <mxGeometry x="-950" y="20" width="130" height="65" as="geometry" />
        </mxCell>
        <mxCell id="09-5HTNzlgl4ZciYs51T-14" value="&lt;span style=&quot;font-size: 20px;&quot;&gt;バリデーション&lt;/span&gt;" style="shape=callout;whiteSpace=wrap;html=1;perimeter=calloutPerimeter;direction=south;fillColor=#fad7ac;strokeColor=#b46504;strokeWidth=8;align=center;" vertex="1" parent="09-5HTNzlgl4ZciYs51T-1">
          <mxGeometry x="-584" y="505" width="460" height="90" as="geometry" />
        </mxCell>
        <mxCell id="1QyWmoOVNwMIoplHalmt-0" value="&lt;font color=&quot;#ff3333&quot; style=&quot;font-size: 10px;&quot;&gt;ユーザー名が違います&lt;/font&gt;" style="verticalLabelPosition=middle;verticalAlign=middle;html=1;shape=mxgraph.basic.rect;fillColor2=none;strokeWidth=1;size=20;indent=5;labelPosition=center;align=center;fontSize=50;fillColor=none;strokeColor=none;" vertex="1" parent="09-5HTNzlgl4ZciYs51T-1">
          <mxGeometry x="-780" y="520" width="230" height="25" as="geometry" />
        </mxCell>
        <mxCell id="1QyWmoOVNwMIoplHalmt-3" value="" style="ellipse;whiteSpace=wrap;html=1;aspect=fixed;strokeColor=#FF3333;strokeWidth=2;fillColor=none;" vertex="1" parent="09-5HTNzlgl4ZciYs51T-1">
          <mxGeometry x="-631" y="518" width="17" height="17" as="geometry" />
        </mxCell>
        <mxCell id="1QyWmoOVNwMIoplHalmt-1" value="&lt;font color=&quot;#ff3333&quot; style=&quot;font-size: 10px;&quot;&gt;パスワードが違います&lt;/font&gt;" style="verticalLabelPosition=middle;verticalAlign=middle;html=1;shape=mxgraph.basic.rect;fillColor2=none;strokeWidth=1;size=20;indent=5;labelPosition=center;align=center;fontSize=50;fillColor=none;strokeColor=none;" vertex="1" parent="09-5HTNzlgl4ZciYs51T-1">
          <mxGeometry x="-780" y="570" width="230" height="25" as="geometry" />
        </mxCell>
        <mxCell id="1QyWmoOVNwMIoplHalmt-2" value="&lt;font color=&quot;#ff3333&quot; style=&quot;font-size: 12px;&quot;&gt;&lt;b&gt;！&lt;/b&gt;&lt;/font&gt;" style="verticalLabelPosition=middle;verticalAlign=middle;html=1;shape=mxgraph.basic.rect;fillColor2=none;strokeWidth=1;size=20;indent=5;labelPosition=center;align=center;fontSize=50;fillColor=none;strokeColor=none;" vertex="1" parent="09-5HTNzlgl4ZciYs51T-1">
          <mxGeometry x="-650" y="500" width="54" height="25" as="geometry" />
        </mxCell>
        <mxCell id="1QyWmoOVNwMIoplHalmt-4" value="" style="ellipse;whiteSpace=wrap;html=1;aspect=fixed;strokeColor=#FF3333;strokeWidth=2;fillColor=none;" vertex="1" parent="09-5HTNzlgl4ZciYs51T-1">
          <mxGeometry x="-631" y="566.5" width="17" height="17" as="geometry" />
        </mxCell>
        <mxCell id="1QyWmoOVNwMIoplHalmt-5" value="&lt;font color=&quot;#ff3333&quot; style=&quot;font-size: 12px;&quot;&gt;&lt;b&gt;！&lt;/b&gt;&lt;/font&gt;" style="verticalLabelPosition=middle;verticalAlign=middle;html=1;shape=mxgraph.basic.rect;fillColor2=none;strokeWidth=1;size=20;indent=5;labelPosition=center;align=center;fontSize=50;fillColor=none;strokeColor=none;" vertex="1" parent="09-5HTNzlgl4ZciYs51T-1">
          <mxGeometry x="-650" y="549" width="54" height="25" as="geometry" />
        </mxCell>
      </root>
    </mxGraphModel>
  </diagram>
  <diagram name="ページ4" id="pAqk8_ZDOUNOSMRn8l51">
    <mxGraphModel dx="2426" dy="534" grid="1" gridSize="10" guides="1" tooltips="1" connect="1" arrows="1" fold="1" page="1" pageScale="1" pageWidth="1169" pageHeight="827" math="0" shadow="0">
      <root>
        <mxCell id="xaSlNQI54tCyF755HBZ4-0" />
        <mxCell id="xaSlNQI54tCyF755HBZ4-1" parent="xaSlNQI54tCyF755HBZ4-0" />
        <mxCell id="xaSlNQI54tCyF755HBZ4-2" value="" style="rounded=0;whiteSpace=wrap;html=1;fillColor=none;strokeWidth=5;strokeColor=#336600;" vertex="1" parent="xaSlNQI54tCyF755HBZ4-1">
          <mxGeometry x="-1110" y="280" width="760" height="470" as="geometry" />
        </mxCell>
        <mxCell id="xaSlNQI54tCyF755HBZ4-3" value="&lt;h1&gt;&lt;br&gt;&lt;/h1&gt;" style="verticalLabelPosition=middle;verticalAlign=middle;html=1;shape=mxgraph.basic.patternFillRect;fillStyle=diag;step=5;fillStrokeWidth=0.2;fillStrokeColor=#dddddd;fillColor=#dae8fc;strokeColor=#6c8ebf;labelPosition=center;align=center;" vertex="1" parent="xaSlNQI54tCyF755HBZ4-1">
          <mxGeometry x="-1110" y="280" width="760" height="90" as="geometry" />
        </mxCell>
        <mxCell id="xaSlNQI54tCyF755HBZ4-4" value="" style="verticalLabelPosition=bottom;verticalAlign=top;html=1;shape=mxgraph.basic.rect;fillColor2=none;strokeWidth=1;size=20;indent=5;" vertex="1" parent="xaSlNQI54tCyF755HBZ4-1">
          <mxGeometry x="-850" y="510" width="240" height="30" as="geometry" />
        </mxCell>
        <mxCell id="xaSlNQI54tCyF755HBZ4-5" value="" style="verticalLabelPosition=bottom;verticalAlign=top;html=1;shape=mxgraph.basic.patternFillRect;fillStyle=vert;step=5;fillStrokeWidth=0.2;fillStrokeColor=#dddddd;fillColor=#dae8fc;strokeColor=#6c8ebf;" vertex="1" parent="xaSlNQI54tCyF755HBZ4-1">
          <mxGeometry x="-790" y="630" width="110" height="25" as="geometry" />
        </mxCell>
        <mxCell id="xaSlNQI54tCyF755HBZ4-6" value="&lt;font style=&quot;font-size: 25px;&quot;&gt;読書ログアプリ&lt;/font&gt;" style="verticalLabelPosition=middle;verticalAlign=middle;html=1;shape=mxgraph.basic.rect;fillColor2=none;strokeWidth=1;size=20;indent=5;labelPosition=center;align=center;fontSize=50;fillColor=none;strokeColor=none;" vertex="1" parent="xaSlNQI54tCyF755HBZ4-1">
          <mxGeometry x="-1100" y="280" width="230" height="85" as="geometry" />
        </mxCell>
        <mxCell id="xaSlNQI54tCyF755HBZ4-7" value="" style="line;strokeWidth=2;html=1;fillColor=#f5f5f5;fontColor=#333333;strokeColor=#666666;labelPosition=center;verticalLabelPosition=middle;align=center;verticalAlign=middle;fontSize=30;" vertex="1" parent="xaSlNQI54tCyF755HBZ4-1">
          <mxGeometry x="-1100" y="390" width="740" height="110" as="geometry" />
        </mxCell>
        <mxCell id="xaSlNQI54tCyF755HBZ4-8" value="&lt;span style=&quot;font-size: 31px;&quot;&gt;ホーム画面&lt;/span&gt;" style="verticalLabelPosition=middle;verticalAlign=middle;html=1;shape=mxgraph.basic.rect;fillColor2=none;strokeWidth=1;size=20;indent=5;labelPosition=center;align=center;fontSize=54;fillColor=none;strokeColor=none;" vertex="1" parent="xaSlNQI54tCyF755HBZ4-1">
          <mxGeometry x="-810" y="371" width="130" height="85" as="geometry" />
        </mxCell>
        <mxCell id="xaSlNQI54tCyF755HBZ4-9" value="&lt;font style=&quot;font-size: 12px;&quot;&gt;ユーザー名&lt;/font&gt;" style="verticalLabelPosition=middle;verticalAlign=middle;html=1;shape=mxgraph.basic.rect;fillColor2=none;strokeWidth=1;size=20;indent=5;labelPosition=center;align=center;fontSize=50;fillColor=none;strokeColor=none;" vertex="1" parent="xaSlNQI54tCyF755HBZ4-1">
          <mxGeometry x="-1020" y="470" width="230" height="85" as="geometry" />
        </mxCell>
        <mxCell id="xaSlNQI54tCyF755HBZ4-10" value="&lt;font style=&quot;font-size: 12px;&quot;&gt;パスワード&lt;/font&gt;" style="verticalLabelPosition=middle;verticalAlign=middle;html=1;shape=mxgraph.basic.rect;fillColor2=none;strokeWidth=1;size=20;indent=5;labelPosition=center;align=center;fontSize=50;fillColor=none;strokeColor=none;" vertex="1" parent="xaSlNQI54tCyF755HBZ4-1">
          <mxGeometry x="-1020" y="520" width="230" height="85" as="geometry" />
        </mxCell>
        <mxCell id="xaSlNQI54tCyF755HBZ4-11" value="&lt;font style=&quot;font-size: 12px;&quot;&gt;ログイン&lt;/font&gt;" style="verticalLabelPosition=middle;verticalAlign=middle;html=1;shape=mxgraph.basic.rect;fillColor2=none;strokeWidth=1;size=20;indent=5;labelPosition=center;align=center;fontSize=26;fillColor=none;strokeColor=none;" vertex="1" parent="xaSlNQI54tCyF755HBZ4-1">
          <mxGeometry x="-780" y="595" width="90" height="85" as="geometry" />
        </mxCell>
        <mxCell id="xaSlNQI54tCyF755HBZ4-12" value="" style="verticalLabelPosition=bottom;verticalAlign=top;html=1;shape=mxgraph.basic.rect;fillColor2=none;strokeWidth=1;size=20;indent=5;" vertex="1" parent="xaSlNQI54tCyF755HBZ4-1">
          <mxGeometry x="-850" y="560" width="240" height="30" as="geometry" />
        </mxCell>
        <mxCell id="xaSlNQI54tCyF755HBZ4-13" value="&lt;div&gt;&lt;span style=&quot;font-size: 31px;&quot;&gt;〈生徒〉&lt;/span&gt;&lt;span style=&quot;font-size: 31px; background-color: initial;&quot;&gt;B ホーム画面&lt;/span&gt;&lt;/div&gt;&lt;div&gt;&lt;br&gt;&lt;/div&gt;" style="verticalLabelPosition=middle;verticalAlign=middle;html=1;shape=mxgraph.basic.rect;fillColor2=none;strokeWidth=1;size=32.5;indent=5;labelPosition=center;align=center;fontSize=54;fillColor=none;strokeColor=none;fontStyle=4" vertex="1" parent="xaSlNQI54tCyF755HBZ4-1">
          <mxGeometry x="-990" y="50" width="130" height="65" as="geometry" />
        </mxCell>
        <mxCell id="xaSlNQI54tCyF755HBZ4-14" value="&lt;font style=&quot;font-size: 20px;&quot;&gt;ログイン出来たら「&lt;/font&gt;&lt;span style=&quot;font-size: 20px; background-color: initial;&quot;&gt;B ホーム画面」へ&lt;/span&gt;" style="shape=callout;whiteSpace=wrap;html=1;perimeter=calloutPerimeter;direction=south;fillColor=#fad7ac;strokeColor=#b46504;strokeWidth=8;align=center;" vertex="1" parent="xaSlNQI54tCyF755HBZ4-1">
          <mxGeometry x="-660" y="620" width="460" height="90" as="geometry" />
        </mxCell>
      </root>
    </mxGraphModel>
  </diagram>
</mxfile>
